<?xml version="1.0" encoding="UTF-8"?>
<svg width="752pt" height="752pt" version="1.1" viewBox="0 0 752 752" xmlns="http://www.w3.org/2000/svg">
 <g>
  <path d="m400.47 388.48c0.48828 5.8594 1.3008 11.684 2.4375 17.449 1.5469 5.668 2.3281 11.516 2.3203 17.391-0.21484 11.637 0.69922 23.285-0.54687 34.934-0.023438 2.2266 0.1875 4.4492 0.62109 6.6328 1.1289 9.3242-2.3242 18.297-2 27.578 0.089844 2.5508-0.57422 4.0078-4.8164 2.9062l0.003906 0.003906c-6.2266-1.6641-12.621-2.5977-19.062-2.7812-7.2227-0.75-14.051-3.6445-19.609-8.3125-10.535-6.9922-20.832-14.34-31.844-20.59l-0.003906 0.003906c-4.8477-3.6055-9.457-7.5195-13.801-11.719-9.7109-7.9688-16.715-18.75-20.039-30.863-3.332-9.2969-4.0742-19.32-2.1445-29.004 0.16406-1.6953 0.17969-3.3984 0.042969-5.0977-5.9727 4.0898-12.496 7.3125-19.371 9.5703-6.3516 1.8633-12.461 4.4727-18.199 7.7734-6.8242 3.9961-12.105 9.8516-18.734 14.074-8.2383 5.2461-15.734 11.859-26.129 12.336-5.4023 0.24609-8.1875-1.8086-7.7227-7.2578 0.86328-10.168-2.1953-20.301-0.13281-30.332 2.1484-10.453 4.6406-20.871 7.6914-31.094v0.003907c1.7695-5.082 5.4141-9.2969 10.191-11.777 3.5078-2.1172 6.6602-4.7695 9.3438-7.8633 1.9258-2.1445 4.0078-4.1367 6.2383-5.9609 4.8945-3.9766 5.1992-4.3477 0.26172-7.9531h-0.003906c-7.3086-5.6602-12.496-13.621-14.73-22.594-2.3789-7.8008-5.6992-15.359-7.543-23.27-1.9648-9.6484-1.1406-19.656 2.3789-28.855 2.7461-7.2148 8.8281-12.648 16.312-14.559 13.395-5.0391 27.727-6.4141 41.387-10.527 6.7031-1.7734 13.844-0.6875 19.723 3.0039 4.3047 2.4414 5.1836 2.2148 6.375-2.6602h-0.003906c3.2266-12.488 10.477-23.566 20.637-31.516 8.4297-7.0508 17.645-13.125 25.578-20.773 2.8359-2.7344 5.7188-5.4258 8.4531-8.2656 1.293-1.3438 3.2812-1.7578 5.0039-1.043 1.2148 0.44922 1.8672 1.7695 1.4805 3.0039-2.2422 14.961 3.1211 28.754 6.4922 42.863 2.0703 5.9258 2.8945 12.215 2.4141 18.469 5.125-3.2734 10.477-6.1836 16.012-8.707 6.0703-3.3906 12.863-5.2852 19.812-5.5195 4.4375-0.20703 8.6719-1.3438 13.02-1.9023 7.3203-0.83203 14.723 0.41406 21.367 3.5938 8.1016 4.3047 15.617 9.6289 22.359 15.848 1.9336 1.6406 2.3633 4.4492 1.0078 6.5938-5.0859 10.609-11.242 20.672-18.367 30.035-2.6016 3.5312-5.3789 6.9258-8.3281 10.172-2.0781 2.4648-2.3945 4.0547 1.3242 5.9141 6.8359 3.3516 13.383 7.2617 19.574 11.699 8.8906 5.7188 17.121 12.406 24.535 19.941 5.5234 5.9883 9.8477 12.98 12.73 20.602 2.3047 5.0273 4.1992 10.234 5.6641 15.566 0.34766 1.6797 1.9219 2.8125 3.625 2.6094 5.6641 0.59766 11.277 1.5664 16.812 2.9062 10.391 3.668 18.867 10.484 28.449 15.414 2.8125 1.4492 2.0703 5.6875 1.1328 8.4297-0.82813 2.4297-3.3359 1.1992-5.1719 0.53516-11.246-3.7969-23.195-5.0391-34.98-3.6367-7.9531 0.76172-15.969 3.1523-23.926 4.7148h-0.003906c-7.875 1.2188-15.594 3.2891-23.02 6.1719-12.238 5.1055-22.371 14.223-28.742 25.852-5.6094 10.234-4.2891 20.648 0.74219 31.195 4.4805 9.9453 8.3359 20.156 11.539 30.582 3.1367 7.7852 5.6016 15.828 7.3594 24.039 2.6641 17.949 9.3555 34.734 14.504 51.953l-0.003907-0.003906c1.6797 5.3359 4.707 10.145 8.7852 13.969 3.0977 2.9492 1.5156 5.8555 0.52734 8.6992-0.30469 0.89844-1.0078 1.6016-1.9023 1.9062-0.89844 0.30859-1.8828 0.17969-2.6719-0.34766-2.2617-0.96875-4.1484-2.6406-5.3867-4.7656-4.2227-9.2891-9.8906-17.961-12.059-28.133-1.5859-7.4531-3.3867-14.863-4.75-22.355-1.418-3.4727-2.3906-7.1133-2.8867-10.832 0.0625-0.9375-0.74219-1.043-1.4883-1.332-8.2539-3.1914-17.352-3.4727-25.785-0.79688-4.6328 1.9219-8.6055 5.1523-11.43 9.293-13.73 17.066-28.492 33.273-44.207 48.531-6.2422 5.5195-13.191 10.18-20.664 13.863-0.73047 0.58203-1.6641 0.84766-2.5938 0.73047-0.92578-0.11719-1.7656-0.60547-2.3242-1.3516-1.5938-1.293-2.0195-3.543-1.0117-5.3281 3.5078-5.3984 6.3945-11.18 8.6016-17.227 6.0547-15.258 14.543-29.434 25.137-41.973 5.7031-7.6406 14.012-12.926 23.348-14.855 6.8516-1.1016 13.102-4.875 20.246-4.5352v-0.003906c8.3008-0.26562 16.566 1.2422 24.242 4.4297 1.3594 1.0625 3.2383 1.1641 4.707 0.25781 1.6992-1.4453 0.13672-3.1016-0.48438-4.4805-3.4453-7.8164-6.4531-15.816-9.0117-23.965-1.4375-4.4688-4.0156-8.5977-5.3789-13.223-2.4023-8.1523-4.9492-16.273-7.7812-24.285-3.1289-8.8594-6.5898-17.598-10.039-26.344-2.2969-5.8281-4.7266-11.621-6.8164-17.527-0.87109-2.5039-2.6094-4.6133-4.8984-5.9453zm51.219-147.57 0.125 0.14844c0.82031-0.89063 1.9219-1.8008 0.82812-3.0938-1.0391-1.2305-1.9648 0.14844-2.793 0.48047-6.2812 2.5156-12.5 5.1992-18.773 7.7344-1.0781 0.4375-2.2578 1.7539-3.8555 0.027344h-0.003906c6.0273-3.3203 12.324-6.1328 18.82-8.4102 0.98438-0.21484 1.8789-0.71875 2.5742-1.4492 0.09375-0.40625-0.015625-0.83203-0.29297-1.1406-1.2852-1.1953-2.1523 0.085937-3.1836 0.58984-1.0859 0.52734-2.2617 0.87109-3.3438 1.4062-8.4727 4.1953-18.66 5.0586-25.238 12.961l0.003907-0.003906c-0.32813 0.019531-0.65234-0.027344-0.95703-0.14453 0.003906-1.2891 2.4336-1.8125 1.2344-3.3516-0.60156-0.50781-1.457-0.57812-2.1328-0.17969-6.8516 1.832-13.523 4.2578-19.949 7.2578-10.059 5.4414-16.449 14.543-22.828 23.473-7.4375 10.41-11.32 22.781-17.465 33.934h0.003907c-1.0469 2.3164-1.7383 4.7734-2.0469 7.2969-0.46484 1.1953 0.039063 2.5508 1.168 3.1562 0.61328 0.10156 1.2383-0.070312 1.707-0.47656 0.47266-0.40234 0.74219-0.99219 0.73438-1.6133 0.69922-0.76953 1.1367-1.7383 1.2539-2.7734-1.5117-4.3203 1.2891-7.2734 3.4023-10.301h-0.003907c0.86328-1.3555 1.5039-2.8398 1.8945-4.3984 2.6914-7.832 6.9727-15.02 12.578-21.113 1.0391-1.1914 3.7812-0.59766 3.9492-2.5391 0.53516-6.1641 5.7109-9.0234 9.0156-13.168v0.003906c2.2539-2.9961 5.4766-5.1133 9.1211-5.9922-3.0195 2.6289-5.6875 5.6367-7.9336 8.9531 4.0195-1.7031 5.4648-5.6445 9.3242-6.0039l-2.1562 4.6172c1.8398-1.25 3.8984-2.1406 6.0703-2.6289-0.23047 0.55078-0.34375 0.83203-0.46484 1.1094-2.0078 4.6094-9.5859 5.4062-8.3984 12.234-0.14062 0.26953-0.37109 0.48047-0.64844 0.59766-6.3789 4.3203-12.207 9.3984-17.363 15.121-6.8594 6.4102-14.238 12.602-16.398 23.176 6.1016-3.3203 12.531-5.9922 19.188-7.9727 6.3008-2.5625 12.922-4.2422 19.68-5 7.2305-0.27344 14.172-2.9258 19.742-7.543 2.832-2.7461 5.3008-5.8398 7.3555-9.207 1.6836-1.9805 4.8398-3.3789 4.4688-6.8203-2.6914 0.66406-5.1719 2.0039-7.1992 3.8906-1.2383 0.84766-4.0156 0.83984-3.2031 3.6055 0.76953 2.6211-0.75391 3.4727-2.8867 3.957-3.8359 0.14844-7.2812 2.3906-8.9688 5.8359-1.1445 1.75-3.4297 2.3398-5.2773 1.3633-0.89453-0.34375-2.1484-1.9375-0.96484-2.3516 3.375-1.1758 4.3984-5.2344 6.6914-6.2227 6.4805-3.1562 12.742-6.7422 18.742-10.738 5.5742-2.5195 10.16-6.8047 13.059-12.191-4.4023 1.293-8.5352 3.3789-12.191 6.1562-2.418 2.4609-2.418 2.4609-7.1367 0.51953 5.8398-2.0312 9.9492-6.0117 15.641-6.9688l0.003906-0.003906c2.0742-0.0625 4.0781-0.78125 5.7227-2.0469 4.3867-5.457 8.207-11.344 11.398-17.574-2.4961 0.12109-4.6836 1.6992-5.5859 4.0312-0.36328 1.3672-1.7266 2.2188-3.1172 1.9453-5.625-1.0938-8.5547 3.6797-12.621 5.957h0.003906c-0.79688 0.55469-1.0469 1.6172-0.58203 2.4688 0.61719 1.0938 1.5 0.59766 2.2852 0.027343 1.1484-0.83984 2.7422-0.69531 3.7188 0.33984-5.2734 4.0352-11.449 6.7305-17.996 7.8516 3.8516-1.3711 6.6172-4.7773 7.1602-8.832-1.7422 0.81641-3.6992 1.043-5.5781 0.64062 4.0469-2.2422 7.3398-4.2188 10.766-5.9297 6.8359-3.4062 12.699-8.8633 20.484-10.184 2.2578-0.38281 3.5195-1.0859 3.3047-3.1758-0.25-2.4453-2.4648-0.78906-3.6836-1.3242zm-222.19 51.828c-2.7656 0.85156-4.2305-1.9414-6.6992-2.4727v-0.003907c-1.0742 4.4375 0.60938 9.0898 4.2773 11.809 9.2852 5.7383 17.371 13.215 23.816 22.027-0.88281 0-1.7578-0.14453-2.5898-0.4375-5.2422-2.8516-10.07-6.4062-14.352-10.562-1.0859-1.1016-2.3086-2.7227-3.5938-1.7148-1.375 1.082 0 2.793 0.77734 4.043 4.3828 5.9414 10.121 10.758 16.738 14.039 0.64453 0.40625 1.3555 0.69141 2.1016 0.83984 10.27 1.7812 19.844-2.3281 29.742-3.6797 2.0898-0.28516 3.6211-1.8906 0.78125-3.9961-2.3086-1.7109-4.3516-3.7773-6.5195-5.6797h0.003906c-1.1641-1.2617-1.543-3.0547-0.98828-4.6797 0.25781-1.4258 1.5312-2.4375 2.9805-2.3711 5.7422 1.0273 12.5-1.5039 16.844 4.9297v-0.003907c1.2812 1.5547 3.3203 2.2656 5.293 1.8438 2.0742-0.33984 4.207-0.16797 6.2031 0.49609 6.2773 2.0469 12.449-0.027344 18.875-0.21094-5.9102-0.80469-9.4414-5.332-13.957-8.1953-7.5898-4.8164-14.715-10.316-22.273-15.223l0.003906 0.003906c-6.8047-4.207-14.223-7.3359-21.988-9.2656-2.7656-0.60547-5.2617-2.0781-7.1289-4.2031-2.8359-4.2656-5.3594-8.7305-7.5547-13.359 1.7461 1.7305 4.3945 2.1602 6.5938 1.0703 2.1133-0.96875 4.5742-0.80469 6.5391 0.4375 4.5625 2.8711 8.9648 5.9844 13.191 9.3281 1.3477 1.0859 1.4844 4.6289 2.6172 4.8555 4.2227 0.85156 6.3984 4.418 9.7695 6.3008 6.8047 3.9258 13.234 8.4727 19.207 13.574 3.8242 4.0391 8.7461 6.8789 14.16 8.168 0.83594 0.10547 1.9648 0.60547 2.3672-0.48828-0.011719-0.73047-0.24219-1.4375-0.66406-2.0352-1.3359-2.9453-4.832-3.8281-6.1914-7.0391-1.6836-3.9844-4.3828-7.5117-6.3477-11.445v0.003906c-2.7852-4.4688-6.1875-8.5195-10.102-12.043-2.7305-2.4141-4.5781-5.6719-5.25-9.2578-0.45703-1.9492 0.007812-4.0039 1.2578-5.5664 1.2539-1.5664 3.1562-2.4688 5.1602-2.4492 4.0859-0.59375 5.4766 0.97266 6.8867 5.7148 2.1172 7.125 4.668 14.164 7.2344 21.105 4.0273 9.1562 10.094 17.27 17.738 23.723 0.66797-1.0664 0.76172-2.3984 0.25-3.5469-3.3672-9.3516-4.8398-19.277-4.3281-29.199 0.015626-1.6758-0.60547-3.2969-1.7461-4.5312-3.832-5.0586-7.6289-10.145-11.625-15.074v0.003906c-1.8789-3.0312-4.3828-5.625-7.3477-7.6133-8.7344-4.0078-15.77-10.621-24.27-14.918v0.003906c-1.957-0.82031-4.168-0.79687-6.1094 0.0625-2.2852 0.69141 0.61719 1.7305 0.37109 2.5508v-0.003906c-0.89844 0.81641-1.8906 1.5195-2.9531 2.1016-0.46484 0.69141-1.7852-0.90234-1.6172-1.4922 1.7578-6.1836-2.9844-3.0703-4.6523-2.9297l-0.003906 0.003906c-3.3164 0.32031-6.543 1.2539-9.5195 2.75-4.0977 2.0078-4.1641 2.4023-0.62891 5.3594 3.0898 2.582 6.2109 5.1328 9.3164 7.6992h-0.003906c-5.0742-2.0352-9.8477-4.7539-14.188-8.0742-5.3438-2.9727-10.758-3.0508-13.648 2.1055v-0.003906c-0.12891 0.43359-0.45703 0.78125-0.87891 0.93359-0.42578 0.15625-0.89844 0.10156-1.2773-0.14453-4.2461-2.6055-6.6211 1.4727-10.336 3.0039 7.5703-1.4453 8.0938 5.5273 11.547 8.7891 3.2539 2.1641 6.1562 4.8164 8.6055 7.8633-7.2539-1.457-11.227-8.6523-18.398-11.477 0.28516 4.1641 4.0117 5.1719 4.4023 8.1758l0.089844-0.082031c-3.2852-1.0078-6.6172-1.8398-9.9883-2.4961 5.4336 8.2461 15.168 12.129 19.391 21.305-3.3789-3.6523-7.5508-0.097656-11.25-1.6289 4.0078 4.4141 9.5547 7.0938 12.25 12.523h0.003907c-5.8672-1.8203-11.035-5.3906-14.812-10.234-1.0586 1.4375-0.67578 3.7539-3.2148 4.2461h-0.003906c-1.0898-2.4609-2.9336-4.5117-5.2617-5.8594-0.22656-0.3125-0.57031-0.51953-0.95312-0.57422-0.38281-0.050781-0.76953 0.054687-1.0703 0.29297-0.77734 0.67187-0.20312 1.4297 0.11328 2.0508 2.1328 3.9844 5.1133 7.4531 8.7305 10.168zm201.31 30.59h0.003906c-2.2891-2.5508-6.0742-3.0938-8.9844-1.2852 2.6641 1.7617 5.9883 2.2109 9.0234 1.2227-1.1719 6.5273 4.4492 7.2773 8.3281 9.6016-6.3633-0.93359-12.117-5.2539-20.145-2.3945 9.6953 1.1133 16.895 6.1953 25.316 7.4023 4.7539 0.92578 9.1875 3.0625 12.871 6.207 0.85156 0.44531 1.1992 1.4805 0.79297 2.3477-0.74609 1.2461-1.4727 0.054688-2.2148-0.28516-1.4922-0.68359-3.1289-1.2852-4.4766-2.0391-6.418-3.5938-13.469 0.035157-19.953-2.1289l0.003906 0.003906c-1.4844-0.3125-2.9922-0.48437-4.5078-0.51953-1.3789-0.42578-2.8477 0.30859-3.3398 1.6641-0.69922 1.9922 1.1523 2.2188 2.2461 2.7422 2.2383 1.0742 4.5781 1.9414 6.875 2.8945-5.2734-0.75781-11.145 0.003907-14.488-5.4336-0.22266-0.39844-0.59766-0.69531-1.0391-0.81641-0.44141-0.125-0.91406-0.0625-1.3125 0.16406-2.1328 3.7422-4.8359 1.043-7.1758 0.67578-7.8633-1.2852-15.574-3.3867-23-6.2695-5.375-1.6758-10.336-4.4648-14.555-8.1914-0.77734-0.76562-2.7227-2.6758-3.7695-1.2461-1.4023 1.9102 1.0742 2.543 2.2773 3.5586v0.003906c3.1328 2.1406 5.8984 4.7773 8.1797 7.8086 2.9648 4.8711 6.043 9.6758 8.8164 14.652h0.003906c1.5508 3.4727 5.5117 5.168 9.0977 3.8945 1.832-0.75 3.8555-0.91406 5.7852-0.46094 4.5 1.6797 9.3477 0.51953 13.918 1.6914 0.39844 0.22266 0.88281 0.24219 1.3008 0.046876 0.41406-0.19531 0.71094-0.57813 0.79297-1.0312 0.64844-2.3633 2.4648-2.1055 4.4297-1.9492h-0.003906c2.7109 0.22266 5.4062 0.58594 8.0781 1.0859 1.2148 0.22266 3.3867 1.957 3.7188-1.1797 3.2148 0.40234 7.3398-3.2383 9.4492 2.1992h-0.003906c0.17188 0.44531 0.55469 0.77344 1.0195 0.875 0.46484 0.097656 0.94922-0.042969 1.2852-0.37891 1.9727-3.1172 4.6484-1.3633 7.9219-0.74609-1.0859-1.2773-1.5703-1.8047-2.0039-2.375-0.73047-0.95313-1.9922-2.1016-1.2109-3.1719 1.0312-1.418 2.4609-0.27734 3.6055 0.375 2.3594 1.3477 4.9453 2.2109 7.3867 3.3672 3.7812 1.375 7.9492 1.2188 11.617-0.4375 1.7461-0.57812 4.3789-0.31641 2.582-4.0312l6.2031 3.0625c-4.3984-8.7539-6.4141-17.992-16.5-22.02 1.8359-0.60547 4.2773-0.22656 3.6016-0.86719-2.6484-2.5117-2.4062-7.4375-5.918-8.4609-5.0508-1.4727-9.3242-5.543-15.148-4.582h0.003906c-1.6914-0.14844-3.3516-0.56641-4.9102-1.2344 2.7227-0.80469 4.3438-1.2969 2.1914-3.7344-0.88672-1.0078-1.2305-5.4766-0.12109-5.4648 4.5664 0.3125 9.1055 0.97266 13.57 1.9766-0.80078 2.4648-3.4141 0.070313-3.7109 2.3203v0.003906c0.066406 1.707 1.1758 3.1992 2.793 3.75 3.7695 1.957 7.7812 3.4023 11.934 4.2891 0.60547 0.48438 1.457 0.51172 2.0898 0.0625 0.87109-0.94922-0.16797-1.7109-0.60547-2.3594h-0.003906c-2.1953-2.3125-5.1016-3.8242-8.2578-4.293-0.91016-0.32812-3.3555-0.4375-0.45703-2.0664 1.4922-0.83984 0.17578-2.2266-0.78125-2.8672-9.3242-6.2344-19.266-11.406-29.031-16.887-1.4648-0.82031-2.6484-1.4688-3.7422 0.51172-0.99609 1.8086 0.25781 2.2969 1.4023 3.1055 1.1602 0.82031 3.3516 2.2695 2.6289 3.0977-3.4062 3.9258 1.4844 3.8477 2.4258 5.5742 0.69531 1.2773 3.1875-0.21484 3.5586 2-8.1719-0.94531-10.371-2.7031-11.961-9.9414-1.8164 1.3555-3.3984 2.7031-5.1406 3.8047-4.3164 2.7227-7.8164 7.5625-12.867 8.043v-0.011719c-4.9492 0.48438-9.8594 1.2656-14.715 2.3438-8.207 1.7422-16.234 4.25-23.973 7.4961-0.83203 0.35547-2.4336 0.53516-2.1211 1.9336 0.37109 1.6523 1.7578 0.48437 2.6719 0.53906l0.003906 0.003906c6.0039-0.28516 12.02-0.039062 17.977 0.73438 0.26953-0.03125 0.52734-0.12891 0.75-0.28125-0.39062-0.87109-0.92187-1.668-1.5742-2.3594 1.5312 0.32031 3.0977 0.46875 4.6641 0.43359 11.555-1.6875 23.262-2.1211 34.91-1.293 4.9141 0.35156 5.1719 0.71484 3.6211 5.5234zm-199.87 81.211h0.003906c6.6367-2.1055 12.57-5.9922 17.156-11.234 0.62891-0.57422 1.6875-2.3477 2.25-0.70312 0.40234 1.1758 3.5 1.7539 1.1992 3.8047h-0.003906c-1.2344 0.71484-2.0586 1.9766-2.2109 3.3945 3.0352-0.78125 5.8945-2.1328 8.4258-3.9766 8.6875-4.5703 18.871-5.7383 26.961-11.539 4.8828-3.5039 11.289-5.4375 14.02-11.352 4.1523-9.0469 10.66-16.809 18.84-22.48 5.9062-4.418 12.121-8.4141 18.59-11.957 2.1523-0.76953 3.8672-2.4336 4.6992-4.5625-7.7852 0.78906-14.977 4.5-20.125 10.391-2.5156 2.7305-5.3516 5.1523-8.4453 7.207-0.69141 0.74219-1.6602 1.168-2.6758 1.168-1.0156 0.003907-1.9844-0.41406-2.6797-1.1562-1.5859-1.5547-1.7109-4.0664-0.28906-5.7695 2.0938-3.0391 4.5273-5.8281 7.25-8.3125-1.875-0.16797-3.7656-0.085937-5.6172 0.25391-6.6602 2.543-13.438 4.7852-20.168 7.1406-2.4102 0.92578-4.625 2.2969-6.5234 4.043-3.9023 3.3398-7.957 6.5078-12.055 9.6094-1.582 1.332-3.8906 1.3477-5.4922 0.042969-1.5625-1.2461-2.1055-3.3789-1.3203-5.2188 1.9648-5.4336 6.2188-9.7344 11.633-11.762 6.1133-3.1172 13.355-1.7852 19.641-4.5312 4.2812-1.3359 8.4609-2.957 12.523-4.8555-0.70703-0.95703-1.8086-1.543-2.9961-1.5938-7.4727-0.51172-14.977 0.30859-22.16 2.4219-6.9453 2-14.109 3.1445-21.328 3.4102-4.2422 0.30859-8.8789-1.4375-12.512 0.17969h-0.003906c-9.9805 5.1953-18.555 12.738-24.977 21.98 4.7695 1.8125 4.7539 1.957 1.2812 5.1406-1.0664 1.0586-1.9883 2.2539-2.75 3.5508-4.7148 8.1016-8.7031 16.609-11.914 25.418-1.4727 3.6523-2.082 7.5938-1.7734 11.516 0.67578 4.4141 0.95703 8.8789 0.83203 13.344-0.42187 3.7617 2.9297 6.5859 5.0898 4.8555l0.003906-0.003906c5.1562-3.4492 9.4961-7.9844 12.719-13.289 1.7969-1.3398 3.4453-2.8711 4.9062-4.5742zm102.37-11.281c1.4336 2.0586-0.71875 3.875 0.14844 5.8555 2.7695 6.3359 5.0117 12.922 8.0625 19.113h-0.003907c5.7773 13.387 12.652 26.27 20.562 38.52 3.8086 5.3047 10.32 9.2188 10.59 16.852 0.22266 0.39062 0.57422 0.69531 0.99219 0.86328 3.7578 2.7031 7.1328 5.8945 10.043 9.4922 2.6484 2.9766 6.9453 3.8516 10.547 2.1445-1.8086-1.8906-3.7305-3.668-5.7617-5.3164-3.2617-1.2734-5.9023-3.7656-7.3633-6.9492-0.52734-1.3945-0.29297-1.8789 0.42969-1.5 2.2031 1.1641 1.75-0.085937 1.6875-1.4219-0.070313-1.4844 0.066406-2.9805 0.11719-4.4727 0.039063-1.0312-0.28516-2.3477 1.0273-2.7305 1.4727-0.42969 1.4375 1.0625 1.9844 1.875 2.082 3.1016 4.2617 6.1367 6.5 9.3398 1.0195-1.7617-1.375-3.0469 0.085938-4.6289 2.0547 2.4297 3.1523 5.5234 3.0938 8.707-0.12109 1.7188-2.2773-0.23828-3.6328 0.5 0.83203 2.4609 2.2031 4.707 4.0078 6.5742 1.2344-2.8672-0.31641-5.707 0.77734-7.832 1.5703-2.7656 0.78906-6.2734-1.8086-8.1172-3.3633-4.0352-6.1289-8.5391-8.207-13.363-1.457-2.5742-1.4297-5.7344 0.078125-8.2812 2.2734 7.7852 5.9883 15.07 10.949 21.484 1.1445-3.8477 0.43359-8.0078-1.9219-11.254-3.9805-5.7461-7.582-11.742-10.781-17.953 6.7266 4.0117 8.1836 12.02 13.312 17.32-0.51953-7.7852-8.6328-12.285-8.9531-20.594l4.9961 7.6641c-3.1602-8.9609-3.5508-18.625-7.5273-27.312 3.543 2.707 5.625 6.9062 5.6406 11.367 0.11719 0.28125 0.28906 0.53516 0.50781 0.74609 1.9062 2.8008 3.8125 5.6055 6.3438 9.3242 0-2.9766-0.054688-4.8906 0.007812-6.8008v0.003906c-0.35547-11.566-1.6562-23.086-3.8945-34.438-1.3164-10.121-4.6289-19.055-14.121-24.445h-0.003906c-0.097657-0.10156-0.14062-0.23828-0.125-0.375 0.99219-1.9453 2.0586 1.2695 3.0938-0.27344l-1.5586-6.5938c3.7656 5.1836 5.0859 10.207 8.4531 14.305l0.003906-0.003906c0.33203-0.43359 0.5625-0.9375 0.67969-1.4727-4.8242-11.828-10.746-23.172-17.688-33.891-1.0469-2.5273-2.918-4.625-5.3125-5.9453-3.8203-0.89062-7.2344-3.0312-9.7031-6.082-1.4961-1.2305-3.3008-2.0273-5.2148-2.3047-4.2969 2.9609-7.9844 6.7109-10.875 11.055 0.8125 2.957-0.035156 6.125-2.2188 8.2812-1.4492 1.332-1.5898 3.5703-0.32422 5.082 0.85547 1.5781 1.2695 3.3594 1.2031 5.1562 1.4531 14.582 6.6562 28.23 10.223 42.293 1.1719 4.625 3.9258 9.8477-0.17969 14.742l0.003906-0.003906c-0.71875 0.875-0.71094 2.1406 0.019532 3.0039 3.9531 2.8477 5.3047 7.5625 8.4023 11.141-1.6875-6.5078-5.6211-12.688-1.5234-19.375 3.6562 5.8281 5.918 13.047 10.012 20.742-3.1367-2.582-5.8477-5.6445-8.0312-9.0703 2.0938 5.0273 2.4102 10.469 4.0469 15.457 0.94922 2.8906 1.2969 7.9297 6.8945 7.2734h0.003906c0.50391 0.19141 0.90234 0.58594 1.1055 1.0859s0.18359 1.0586-0.042969 1.5469c-0.15234 0.50781-0.51172 0.92188-0.98828 1.1445-0.48047 0.22266-1.0273 0.22656-1.5117 0.015626-0.78125-0.46094-1.4492-1.0977-1.9453-1.8594-4.4297-5.9336-8.8164-11.898-13.227-17.844-0.46094-0.62109-0.875-2.1211-1.8516-0.9375-1.9336 2.3398-2.8555 0.37891-3.7344-0.77344v0.003906c-3.0352-4.3047-5.5859-8.9219-7.6172-13.777-3.3516-7.207-5.4648-14.883-8.9844-22.082zm42.047 90.203c-3.0938-5.6367-9.6484-7.3477-13.859-11.848v-0.003906c1.6914-0.47656 3.5117 0.007812 4.7383 1.2695 0.84766 0.35156 1.5117 1.8516 2.6016 0.34766 0.29688-0.44922 0.39453-1 0.26562-1.5234-0.12891-0.52344-0.47266-0.96484-0.94141-1.2266-2.1523-2.1328-4.1094-4.4531-5.8516-6.9336-7.8359-11.648-14.668-23.887-21.406-36.176-1.5469-2.6133-4.0234-4.5469-6.9297-5.4141 0.89063 7.3633 3.9297 14.301 8.7305 19.953 3.5859 4.7578 4.2578 4.2539 0.39062 9.7539l0.003906-0.003906c-7.3594-11.574-12.902-24.207-16.441-37.461l-1.1875 0.43359c3.1719 11.137 6.3398 22.273 9.6211 33.789-1.5742-0.36719-2.7188-1.7227-2.8164-3.332-1.0664-3.2695-1.918-6.6094-3.1016-9.8359-0.26562-0.72266-0.26953-2.6875-1.7148-2.0352-2.6836 1.2148-2.75-0.96875-3.3828-2.2773h0.003906c-3.4805-5.5898-4.5664-12.34-3.0195-18.738 0.074219-1.043-0.042969-2.0859-0.34766-3.0859-0.47266-10.531-3.4766-21.121-0.25-31.582 1.6875-6.9805 3.9375-13.812 6.7344-20.426 2.1992-4.418 3.5586-4.543 6.5352-0.60156h0.003906c2.6914-4.125 4.7344-8.6328 6.0625-13.375-1.1719 0.49219-1.7383 0.66797-2.2422 0.95312-13.84 7.8047-26.602 16.227-34.293 31.383-6.6758 12.602-8.1992 27.305-4.2422 41.004 2.0781 7.5117 5.6758 14.52 10.57 20.586 6.0898 8.7969 14.059 16.129 23.332 21.465 6.0078 2.793 11.715 6.1875 17.031 10.141 6.5312 5.332 13.504 10.098 20.848 14.242 1.207 1.2148 3.0898 1.4453 4.5547 0.55859zm47.969-256.2c-5.9688 0-11.809 1.7188-16.828 4.9531-0.86328 0.67188-2.6367 2.0039-2.5625 0.19141 0.089844-2.1562 0.17188-5.8086 3.7383-5.7539 4.8359 0.074219 9.5195-1.0625 14.301-1.1836 1.2773-0.03125 3.2344 0.96875 3.4492-0.85547v-0.003907c-0.011719-0.85547-0.4375-1.6562-1.1406-2.1445-0.70703-0.49219-1.6055-0.60938-2.4141-0.31641-6.9922 1.0391-14.348 0.24609-20.836 3.9141-1.5352 0.86719-2.8906 3.3398-4.6875 0.29297h-0.003906c-0.51562 0.125-1.0195 0.30469-1.5 0.53516 1.3789 3.2969-2.6016 3.668-3.7969 6.6445l11.145-4.375h0.003906c-2.9727 3.4648-7.1562 5.668-11.695 6.1562-4.3047 0.19922-8.5664 0.97266-12.664 2.3047 3.6484-4.5742 9.8945-4.8867 13.535-9.2031-7.6484 1.6758-14.867 4.918-21.195 9.5273-8.4766 6.7227-16.281 14.242-23.316 22.457-3.6562 4.5742-4.3281 11.027-9.7109 14.352v0.003906c-0.62891 0.73047-0.62891 1.8164 0.007812 2.543 3.25 5.4922 5.8008 11.367 7.5859 17.492 1.7266-1.1328 2.7852-3.0391 2.8398-5.1055 1.1211-4.0352 1.6211-8.2891 3.1289-12.16h-0.003907c0.89062-1.7852 1.2188-3.8008 0.94531-5.7773-1.3008-5.4844 0.96875-11.195 5.6797-14.285 0.92188-0.9375 2.2266-1.3906 3.5312-1.2305 1.3047 0.16016 2.4609 0.91406 3.1289 2.0469 1.1875 1.8438-0.60156 14.238-2.3867 14.742-5.1094 1.4492-5.0273 6.0469-6.2812 9.5469-3.1641 8.8555-6.5039 18.012-3.2031 25.941 0.375-0.56641 0.73047-1.0273 1.0039-1.5312 7.2148-13.297 11.844-27.949 22.113-39.656 5.5664-6.9688 12.473-12.75 20.316-17 8.0938-3.7383 16.484-6.7969 25.082-9.1523 7.375-2.2305 14.879-4.0664 22.184-6.5586 0.98828-0.24219 1.832-0.88281 2.3281-1.7695-0.074219-1.2461-0.94141-2.3047-2.1523-2.6133-1.7617-0.53906-3.6602-0.36328-5.293 0.48438-2.6758 1.0039-5.2305 2.3906-7.9609 3.1758h-0.003907c-5.293 2.2344-10.879 3.707-16.586 4.3828 0.64062-1.5312 2.125-2.5469 3.7852-2.5859 4.6133-1.4648 9.2422-2.9102 13.738-4.6875 3.1836-1.2578 3.1523-1.6328 2.3594-5.3516-4.4023 4.7031-10.77 7.0508-17.172 6.3359 2.9062-0.78516 5.5078-2.4336 7.4648-4.7227zm-93.062-23.879c-2.9102 0.21875-5.2539 2.4688-5.5977 5.3633-1.8086 5.1172-3.8945 10.129-6.2539 15.012-1.5039-1.8594-0.035156-3.4023-1.1094-5.1523-1.125 3.5469-2.082 6.6484-3.1055 9.7305-0.0625 0.95312-0.83203 1.707-1.7891 1.7422-1.2773-0.078124-0.9375-1.3398-1.4023-2.0156-1.2656-1.8242 0.10547-4.4648-1.8008-6.2891-1.543 2.2344 0.47266 4.6367-0.83203 6.6992-1.5195-0.61719-0.11328-2.4141-1.4062-2.9805v0.003906c-2.1406 2.082-3.3086 4.9648-3.2227 7.9492 0.082031 2.9844 1.4141 5.7969 3.668 7.7539 8.1367 6.5625 15.668 13.844 22.5 21.758-1.4883-5.1875-0.34766-10.773 3.0586-14.953 0.90625-1.2891 2.543-1.8398 4.043-1.3594 1.2695 0.60938 1.9414 2.0234 1.6094 3.3945-0.09375 5.0664 0.96484 10.367-3.1641 14.574-0.30078 0.34766-0.44531 0.80078-0.40234 1.2578 0.039062 0.45312 0.26562 0.875 0.625 1.1602 3.1602-3.5977 6.0664-7.4141 8.6875-11.418 5.1797-6.6328 9.8477-13.742 17.648-17.762h0.003907c1.707-0.85547 2.5898-2.7812 2.125-4.6289-0.62891-8.2852-2.2578-16.461-4.8516-24.355-0.44531-3.1406-1.3711-6.1953-2.7539-9.0508-0.050781 5.0859-2.125 9.7812-2.2852 14.914h0.003907c0.97266-1.3711 2.4609-2.293 4.125-2.543-5.4023 6.8516-8.9219 14.992-10.211 23.621-0.36328-5.7266 0.625-11.461 2.8828-16.734 2.8906-5.7305 1.5742-9.1719-3.7695-10.633-3.4844 10.863-3.4609 22.523-7.6211 33.246 1.2656-20.82 5.0078-41.414 11.148-61.348-6.8867 7.9492-5.5234 18.621-8.5469 28.945v-0.003906c-1.1289-1.3516-1.6602-3.1055-1.4805-4.8555 0.75781-1.5469 0.58594-3.3867-0.44141-4.7617-1.7852 9.0352-8.7773 13.973-14.457 20.039v-0.003906c0.13281-5.707 1.6328-11.305 4.375-16.316zm126.48 166.7c-6.2617-1.9922-12.75-3.2031-19.309-3.6094-12.398-2.0117-24.938-3.0703-37.496-3.1602-3.7109 0.097656-3.293 1.6602-2.0547 3.9062 2.793 5.0742 6.293 9.707 8.6562 15.082 4.5898 10.441 12.258 19.441 14.508 30.996v-0.003907c0.17187 0.41406 0.37891 0.8125 0.61719 1.1914 0.64062 1.6523 1.8398 1.9414 2.3789 0.27344 1.875-4.0586 4.168-7.9141 6.8438-11.5 6.8789-12.133 13.215-24.711 25.855-33.176zm17.199-47.785c-2.3164 0.27734-5.4883-0.03125-4.957 1.1953 0.89844 2.082-2.4141 3.5156-0.15234 5.1641 0.62109 0.80469 1.5391 1.3242 2.5508 1.4453 1.0078 0.12109 2.0273-0.16797 2.8203-0.80469 2.6953-1.8125 3.25 2.2227 4.9805 3.3555h-0.003906c0.43359 0.14844 0.75 0.51953 0.82031 0.97266 0.074219 0.44922-0.10937 0.90234-0.47266 1.1758-1.7812 1.875-1.7422 1.9961 0.14453 3.4922 1.7734 1.4062 3.6562 2.668 5.4492 4.0469 0.71875 0.55469 1.3906 1.4492 2.3477 0.85547 1.2852-0.80078 0.35938-2.0234 0.050782-2.8594-0.92578-3.4688-2.3359-6.7891-4.1836-9.8672-2.5625-3.4414-4.9062-7.75-9.3906-8.1719zm-1.3867 40.426c4.9023 5.7266 11.547 5.8906 18.18 6.1836 0.82812 0.046875 1.6406-0.26562 2.2188-0.86328 0.57812-0.59375 0.86719-1.4141 0.79297-2.2383 0.27344-0.64062 0.27344-1.3633 0-2-0.27344-0.64062-0.79688-1.1367-1.4492-1.3789-1.6797-0.58984-3.9609-1.9961-4.9766-0.35547-2.9961 4.8359-6.1562 1.9844-9.6484 0.99609 0.92578-1.1016 3.2578-0.37891 2.5664-2.5625-0.80078-2.5273-3.2227-1.5938-4.9062-2.2148h-0.003906c-0.40234-0.23828-0.89844-0.26562-1.3281-0.074218-0.42969 0.19531-0.73828 0.58594-0.82422 1.0469-0.21875 2.1719 2.7148 0.72656 3.0703 2.2773-0.75391 1.9883-2.4727 0.042969-3.6875 1.1836zm-140.75 52.598c1.7031-1.6289 2.3008-4.1016 1.5312-6.3281-3.3047-7.8594-4.9688-16.312-4.8906-24.836-0.10156-3.1602-0.54688-6.293-1.3359-9.3516l-1.2812 0.21875h-0.003906c-0.29297 13.672 1.7305 27.297 5.9805 40.297zm-33.941-94.059-0.03125 0.26172c-1.4961-0.14844-2.9883-0.38672-4.4844-0.42578-0.67969-0.10547-1.375 0.074219-1.918 0.49609-0.54297 0.42578-0.88672 1.0508-0.95312 1.7383-0.03125 1.3945 1.5078 1.1562 2.5039 1.1875 4.5898 0.13672 9.1797 0.22266 13.77 0.33203 0.84375 0.019532 2.0547 0.58203 2.2031-0.73047 0.15234-1.3086-0.95703-1.6562-2.1211-1.7812-2.9922-0.32422-5.9805-0.71484-8.9688-1.0781zm44.91-9.2227c0.5-8.0938-3.4102-14.824-6.1562-21.922-0.42969 8.0352 3.6797 14.738 6.1562 21.922zm149.93 46.387h0.003906c1.5547-3.8477 0.035156-8.25-3.5625-10.316-1.1328 1.4336 0.89062 4.4219-2.8633 4.8594-1.4141 0.16406-0.92969 3.7148 0.6875 3.6094h0.003906c1.9805 0.37891 3.9062 0.99609 5.7344 1.8477zm-162.52-2.1797c-5.1445 8.6562-5.7422 14.891-1.5664 17.348-0.89844-5.8594 2.4297-10.988 1.5664-17.348zm-107.17-91.352c2.5938 6.1836 8 10.742 14.531 12.258zm244.61 98.844c-4.2891-3.0078-9.6094-2.2773-14.309-3.8008-0.30859-0.054688-0.625 0.023437-0.86328 0.21875-0.24219 0.19531-0.38672 0.48828-0.39844 0.80078-0.070313 1.1758 0.81641 1.375 1.7422 1.6172 4.4727 1.3867 9.1875 1.7812 13.828 1.1641zm-127.42 7.75c-0.44141-5.1133 1.4766-10.465-1.2031-15.785v-0.003907c-2.8555 5.0156-2.3789 11.262 1.2031 15.789zm-0.73828-181.95c-2.7344 4.6445-6.7148 8.7656-6.7227 14.695 3.0234-4.5 5.2969-9.4648 6.7227-14.695zm-118.46 80.012c-1.5742-0.20703-1.75 1.1602-1.8164 2.3359-0.1875 3.4219 3.2773 1.7266 4.6641 3.1445 0.74609 0.76562 1.7266-0.14844 1.5859-1.2773v0.003906c-0.29297-2.2773-2.1445-4.0352-4.4336-4.207zm4.8633-18.344c-2.6133 0.43359-2.0977 3.1953-3.6641 4.3594h-0.003906c-0.38281 0.375-0.59766 0.88281-0.60156 1.4141-0.003906 0.53516 0.20703 1.0469 0.58203 1.4258 0.34766 0.26172 0.74219 0.45703 1.1602 0.56641-0.55859-3.4922 2.9453-2.7266 4.3359-4.168v0.003907c0.29688-0.24609 0.47656-0.59766 0.50391-0.98047 0.027343-0.38281-0.10156-0.75781-0.35938-1.043-0.61328-0.57031-1.2695-1.0977-1.957-1.5781zm172.43 196.9c1.1875-1.7773 1.5156-3.9922 0.89453-6.0352-0.61719-2.043-2.1172-3.7031-4.0859-4.5273 0.42188 3.6836 1.5 7.2617 3.1914 10.562zm-74.523-66.398c-1.5 3.2266-2.0391 6.8164-1.5508 10.34 0.007813 0.89062-0.44922 2.4688 1.332 2.1562 0.54297-0.11719 1-0.47266 1.25-0.96875 0.24609-0.49609 0.25391-1.0781 0.023437-1.582-0.71094-3.2695-1.0625-6.6016-1.0547-9.9453zm60.824-103.43c3.3242-1.7148 5.957-4.5156 7.4609-7.9375-2.3594 2.7656-6.7812 3.4766-7.4609 7.9375zm-30.559-93.652c-1.0195 3.9805 2.4102 7.7969 0.26172 11.91 2.9102-4.0117 1.2461-7.9375-0.26172-11.91zm37.156 141.54c4.9102 2.9648 6.6719 3.2617 10.141 2.0977h0.003906c-3.1055-1.6719-6.6289-2.4023-10.145-2.0977zm45.656 12.395v0.003906c-2.1406-1.6133-4.8789-2.2109-7.4961-1.6289-0.16797 0.34766-0.19141 0.75-0.058594 1.1133 2.0938 1.9062 5.2227 2.1211 7.5547 0.51562z"/>
  <path d="m226.04 409.11c-3.0352 1.293-3.9102 5.1289-8.7969 4.9492-5.1445-0.19141-4.3242-2.8203-4.6953-5.5039-0.27344-1.9727 3.1016-5.2227-2.1719-5.3086-0.75391-0.011719-0.20703-1.5391 0.085938-2.3867l0.003906-0.003906c1.5742-3.2695 2.707-6.7383 3.3594-10.312 0.62109-11.414 8.3867-18.68 14.512-26.988-0.53125 5-5.2188 8.5508-4.6523 14.324 1.3672-1.1875 2.4844-2.1484 3.5938-3.1211h0.003906c0.45703-0.62891 1.2695-0.88672 2.0078-0.63281 3.9883 1.9219 3.9805 1.9336 7.0312-0.14453-7.9219 10.641-17.375 20.367-21.477 33.289l1.0703 0.69141c3.3828-4.7148 6.9336-9.3203 10.086-14.188h-0.003906c1.3867-2.6953 3.5781-4.8945 6.2695-6.293 8.3984-2.1992 13.531-8.9336 20.32-13.27v0.003906c11.34-7.4141 23.219-13.961 35.539-19.586 2.7383-1.2148 5.6328-2.082 8.4102-3.2148 1.4375-0.58594 2.4492-0.27344 2.7773 1.1797 0.33984 1.5195-1.0547 1.3281-1.9727 1.7891l-0.003906 0.003907c-9.4336 3.8828-18.598 8.3945-27.426 13.508-7.6992 5.2539-15.938 9.793-23.211 15.562-3.8906 3.0859-6.1758 8.1641-10.168 11.395 1.4023 2.1211 2.293-0.45703 3.7422 0.72266-2.3281 3.7539-7.3281 4.9297-9.3242 8.9648l-0.003907-0.003906c-1.4609 1.7031-3.1094 3.2344-4.9062 4.5742zm-3.5859-5.625h-0.003906c4.2148-2.5 7.8594-5.8594 10.695-9.8555 0.53906-0.78125 2.5156-1.3203 0.91406-2.6328-1.1367-0.92969-2.2109-0.10156-3.0703 0.91406v0.003906c-3.1641 3.6094-6.0234 7.4805-8.5391 11.57z"/>
  <path d="m392.09 413.95c-3.6133-3.2891-6.4531-7.3398-8.3203-11.855 3.6758 3.2383 6.5234 7.3008 8.3203 11.855z"/>
  <path d="m232.29 372.42c0.93359-1.918 2.4805-3.4688 4.3945-4.4062 0.9375-0.77734 2.043-1.625 3.1172-0.53516 0.48047 0.79688 0.30859 1.8281-0.40234 2.4297-0.5625 0.66406-0.90625 3.4961-2.2109 0.40625z"/>
  <path d="m272.89 262.31c-5.4648-1.6602-9.2266-5.8359-14.879-4.9336-1.5312 0.24219-3.0859-0.80078-2.6445-3.8672 0.26953-1.8633-3.375-4.3438-5.3633-6.4531v-0.003906c-0.63672-0.43359-0.82031-1.2891-0.41797-1.9453 0.64062-0.72656 1.2422 0.089844 1.8984 0.43359 4.2617 2.2266 7.9805 5.2773 12.039 7.7852h0.003906c3.8984 2.0625 7.1406 5.1758 9.3633 8.9844z"/>
  <path d="m286.29 252.61c-3.9336 0.074219-7.8008-1.0039-11.133-3.0977-1.25-0.83984-0.94922-1.4727-0.44531-2.5703 0.58203-1.2656 1.2461-1.0117 2.1016-0.52734 3.2734 1.8398 5.4453 5.3438 9.4766 6.1953z"/>
  <path d="m283.35 241.18c3.4883 2.7383 7.8438 3.7812 11.191 6.5547 0.61719 0.51172 1.6055 1.2266 0.79688 2.2305-0.27344 0.28125-0.64453 0.4375-1.0352 0.4375s-0.76562-0.16016-1.0391-0.44141c-3.168-3.1055-8.2891-3.8203-9.9141-8.7812z"/>
  <path d="m229.45 292.77c1.3281 1.9648 6.0938 1.4219 4.0938 5.9609-0.5 1.1406 0.8125 3.293-1.8672 2.6797-0.92969-0.054687-1.7852-0.52344-2.332-1.2734-0.54688-0.75391-0.73047-1.7109-0.49609-2.6133 0.60156-1.6523 0.035156-3.2695 0.65234-4.793z"/>
  <path d="m235.42 263.06c4.4609 1.2188 8.3633 3.9453 11.035 7.7227-4.5938-0.92188-8.5781-3.7617-10.945-7.8047z"/>
  <path d="m451.69 240.91c-2.4453 4.5352-7.5039 5.2891-11.441 7.5195-2.2852 2.4141-5.543 3.6641-8.8555 3.3945 7.0273-4.5117 12.711-9.4531 20.422-10.762z"/>
  <path d="m335.95 214.74c0.058594 9.5938-3.1602 18.164-2.8242 28.02-2.2344-3.6289-0.12891-21.488 2.8242-28.02z"/>
  <path d="m356.48 233.17c-0.66797-4.332 1.0938-8.5117 0.67578-12.828 1.3984 4.207 1.1602 8.7891-0.67578 12.828z"/>
 </g>
</svg>
